HIERARCHY
ROOT Hips
{
  OFFSET 1.44925e-005 102.336 -0.101585
  CHANNELS 6 Xposition Yposition Zposition Zrotation Xrotation Yrotation
  JOINT LeftUpLeg
  {
    OFFSET 8.9458 -8.66707 0.101652
    CHANNELS 3 Zrotation Xrotation Yrotation
    JOINT LeftLeg
    {
      OFFSET 0 -44.4227 1.3727
      CHANNELS 3 Zrotation Xrotation Yrotation
      JOINT LeftFoot
      {
        OFFSET -0.253549 -42.0924 -1.46059
        CHANNELS 3 Zrotation Xrotation Yrotation
        JOINT LeftToes
        {
          OFFSET -0.04 -4.41509 8.4991
          CHANNELS 3 Zrotation Xrotation Yrotation
          End Site
          {
            OFFSET 0.08 -0.047448 9.77979
          }
        }
      }
    }
  }
  JOINT Spine
  {
    OFFSET 0 11.8905 0
    CHANNELS 3 Zrotation Xrotation Yrotation
    JOINT Spine1
    {
      OFFSET 0 25.6574 0.127663
      CHANNELS 3 Zrotation Xrotation Yrotation
      JOINT RightShoulder
      {
        OFFSET -8.99 -0.362252 -0.22
        CHANNELS 3 Zrotation Xrotation Yrotation
        JOINT RightArm
        {
          OFFSET -10.2827 -0.00338 0.322123
          CHANNELS 3 Zrotation Xrotation Yrotation
          JOINT RightForeArm
          {
            OFFSET -26.364 0.099144 -1.42434
            CHANNELS 3 Zrotation Xrotation Yrotation
            JOINT RightHand
            {
              OFFSET -22.0324 0.085362 1.02216
              CHANNELS 3 Zrotation Xrotation Yrotation
              End Site
              {
                OFFSET -13.3284 -0.6 1.50291
              }
            }
          }
        }
      }
      JOINT LeftShoulder1
      {
        OFFSET 8.99 -0.362252 -0.22
        CHANNELS 3 Zrotation Xrotation Yrotation
        JOINT LeftArm
        {
          OFFSET 10.2827 -0.00337999 0.322123
          CHANNELS 3 Zrotation Xrotation Yrotation
          JOINT LeftForeArm
          {
            OFFSET 26.2597 0.099144 -1.42434
            CHANNELS 3 Zrotation Xrotation Yrotation
            JOINT LeftHand
            {
              OFFSET 22.0902 0.085362 1.02216
              CHANNELS 3 Zrotation Xrotation Yrotation
              End Site
              {
                OFFSET 13.419 -0.6 1.50291
              }
            }
          }
        }
      }
      JOINT Head
      {
        OFFSET 0 8.73416 0.011341
        CHANNELS 3 Zrotation Xrotation Yrotation
        End Site
        {
          OFFSET -0.29 12.7742 2.51395
        }
      }
    }
  }
  JOINT RightUpLeg
  {
    OFFSET -8.9458 -8.66707 0.101652
    CHANNELS 3 Zrotation Xrotation Yrotation
    JOINT RightLeg
    {
      OFFSET 0 -44.4227 1.3727
      CHANNELS 3 Zrotation Xrotation Yrotation
      JOINT RightFoot
      {
        OFFSET 0.253549 -42.0924 -1.46059
        CHANNELS 3 Zrotation Xrotation Yrotation
        JOINT RightToes
        {
          OFFSET 0.04 -4.41509 8.4991
          CHANNELS 3 Zrotation Xrotation Yrotation
          End Site
          {
            OFFSET -0.08 -0.137448 9.77979
          }
        }
      }
    }
  }
}
MOTION
Frames:	16
Frame Time:	0.0333333
134.15 8.77242 -2.46029 -87.0657 -1.07026 -95.9095 -4.32063 -7.34093 -8.12001 4.3247 5.90999 0.66815 -22.906 33.0885 8.04574 -1.11495e-009 8.7508e-006 -1.48278e-008 12.1102 -14.9198 4.94717 -15.7634 21.4232 9.46038 20.2633 1.33231 0.677456 57.5351 -14.8578 4.84299 18.2497 65.4082 -8.29011 4.22286 9.94242 -4.3584 -16.1043 1.3182 -2.26325 -48.1159 -11.6441 -8.92997 -32.7803 75.9883 19.1263 5.82328 9.61819 -0.917488 3.68523 -29.2103 -5.75587 -4.67731 -16.5511 -4.32532 -1.39686 25.8442 6.1136 11.0984 17.6005 -2.44871 0.0462048 0.00053089 0.662642 
134.15 8.77242 -2.46029 -87.0148 -1.05563 -95.9073 -4.27464 -7.38997 -8.07887 4.29481 5.8975 0.685904 -22.9916 33.1201 8.08378 -1.11495e-009 8.7508e-006 -1.48278e-008 12.1328 -15.0015 4.966 -15.7646 21.4547 9.47016 20.2546 1.33231 0.677456 57.5441 -14.8757 4.83059 18.2869 65.5892 -8.33318 4.17211 9.94519 -4.13885 -16.1 1.3182 -2.26325 -48.1074 -11.6093 -8.92624 -32.7201 75.9722 19.0587 5.82328 9.61819 -0.917488 3.75229 -29.2767 -5.76905 -4.66424 -16.5831 -4.3483 -1.38577 25.8098 6.12075 11.1356 17.6136 -2.45823 0.0462048 0.00053089 0.662642 
134.15 8.77242 -2.46029 -86.9705 -1.03238 -95.9513 -4.2258 -7.42776 -8.01492 4.26529 5.87347 0.673839 -22.9633 33.1319 8.07572 -1.11495e-009 8.7508e-006 -1.48278e-008 12.2902 -15.0375 5.02104 -15.9611 21.4935 9.56822 20.2015 1.33231 0.67709 57.6634 -14.974 4.83322 18.2797 65.7978 -8.32903 4.18298 9.94735 -3.97084 -16.0767 1.3182 -2.26325 -48.0883 -11.559 -9.00016 -32.7051 75.9441 19.0361 5.82328 9.61819 -0.917488 3.81522 -29.4158 -5.82238 -4.62978 -16.6112 -4.32287 -1.38149 25.7513 6.14218 11.1747 17.6395 -2.46881 0.0462048 0.00053089 0.662642 
134.149 8.77281 -2.46167 -86.963 -1.01722 -95.9606 -4.20007 -7.44525 -7.97753 4.23448 5.88716 0.585891 -22.8058 33.0978 8.0107 -1.11495e-009 8.7508e-006 -1.48278e-008 12.3803 -15.0417 5.03842 -16.0896 21.5328 9.62045 20.1502 1.33232 0.675589 57.7649 -15.0145 4.86232 18.2407 65.8201 -8.27941 4.22453 9.94734 -4.00617 -16.0383 1.31726 -2.26324 -48.1107 -11.5745 -9.06431 -32.7488 75.944 19.0859 5.82328 9.61819 -0.917488 3.82548 -29.5361 -5.87575 -4.59702 -16.6109 -4.2779 -1.39068 25.7208 6.12672 11.1785 17.6541 -2.47304 0.0462048 0.00053089 0.662642 
134.145 8.77631 -2.47028 -86.9731 -1.0173 -95.8822 -4.18587 -7.45777 -7.97522 4.19376 5.92931 0.48744 -22.7016 33.0648 7.96558 -1.11495e-009 8.7508e-006 -1.48278e-008 12.2373 -15.0995 4.97818 -15.9029 21.5867 9.52037 20.1536 1.33232 0.674058 57.709 -14.8903 4.91083 18.275 65.7337 -8.30156 4.2209 9.94678 -4.08151 -15.9967 1.31415 -2.26235 -48.2039 -11.6768 -9.02721 -32.8304 75.999 19.1899 5.82328 9.61819 -0.917488 3.82787 -29.5644 -5.8641 -4.59358 -16.5939 -4.28708 -1.39904 25.7401 6.06753 11.1615 17.6462 -2.47486 0.0462048 0.00053089 0.662642 
134.138 8.78374 -2.48617 -86.9765 -1.01315 -95.7885 -4.1533 -7.46754 -7.95975 4.14853 5.95011 0.447109 -22.7006 33.0669 7.96559 -1.11495e-009 8.7508e-006 -1.48278e-008 12.0951 -15.1919 4.92449 -15.7178 21.6911 9.43311 20.1303 1.33125 0.672537 57.7142 -14.836 4.96905 18.3489 65.7696 -8.3933 4.18953 9.94734 -4.07308 -15.9689 1.31227 -2.25954 -48.2561 -11.7198 -9.0278 -32.9024 76.0272 19.2759 5.82328 9.61819 -0.917488 3.87479 -29.6268 -5.84749 -4.59744 -16.5784 -4.3334 -1.39643 25.7643 6.01062 11.1483 17.6358 -2.47497 0.0462048 0.00053089 0.662642 
134.138 8.78513 -2.49362 -86.9547 -0.982391 -95.7545 -4.08388 -7.49029 -7.89114 4.10471 5.94215 0.434749 -22.7008 33.0842 7.96999 -1.11495e-009 8.7508e-006 -1.48278e-008 12.2634 -15.2732 4.97349 -15.9672 21.8791 9.56616 19.9654 1.32491 0.671063 58.0797 -15.1355 5.02302 18.3269 65.989 -8.43145 4.13138 9.9487 -4.0055 -15.9699 1.31081 -2.25892 -48.1325 -11.5507 -9.24715 -32.8898 75.9067 19.2428 5.82328 9.61819 -0.917488 3.94997 -29.9009 -5.95709 -4.56311 -16.5761 -4.343 -1.38919 25.7359 5.97386 11.1479 17.6418 -2.47405 0.0462048 0.00053089 0.662642 
134.146 8.78665 -2.49378 -86.909 -0.941727 -95.7577 -4.00363 -7.53717 -7.79979 4.05983 5.93498 0.407796 -22.6709 33.0928 7.96185 -1.11495e-009 8.7508e-006 -1.48278e-008 12.6194 -15.3539 5.08548 -16.4779 22.0921 9.82793 19.7318 1.31346 0.669675 58.6263 -15.6102 5.05271 18.2106 66.2 -8.3813 4.00665 9.95035 -3.91714 -15.9918 1.30969 -2.25924 -47.8986 -11.2526 -9.57809 -32.8054 75.6666 19.1178 5.82328 9.61819 -0.917488 3.9939 -30.2442 -6.16848 -4.50582 -16.5892 -4.31093 -1.38621 25.6703 5.94203 11.1595 17.6517 -2.47233 0.0462048 0.00053089 0.662642 
134.154 8.78812 -2.49451 -86.8639 -0.923239 -95.748 -3.9531 -7.58856 -7.73957 4.01575 5.93997 0.384875 -22.6699 33.0974 7.96027 -1.11495e-009 8.7508e-006 -1.48278e-008 12.7983 -15.4438 5.14695 -16.7258 22.2137 9.95733 19.6168 1.30742 0.668402 58.8826 -15.8257 5.05033 18.1508 66.2372 -8.3472 3.88896 9.9518 -3.84583 -16.0062 1.30885 -2.25963 -47.7679 -11.0667 -9.74769 -32.7666 75.4896 19.058 5.82328 9.61819 -0.917488 3.98057 -30.4134 -6.30668 -4.48079 -16.6096 -4.29509 -1.38298 25.626 5.91598 11.1771 17.6506 -2.47002 0.0462048 0.00053089 0.662642 
134.157 8.78946 -2.49573 -86.8498 -0.924292 -95.7257 -3.93663 -7.6134 -7.72046 3.98208 5.95364 0.379936 -22.6875 33.0989 7.96727 -1.11495e-009 8.7508e-006 -1.48278e-008 12.732 -15.4914 5.13046 -16.6165 22.2222 9.90634 19.6503 1.30813 0.667678 58.7793 -15.7258 5.03909 18.1839 66.1702 -8.36667 3.91167 9.95224 -3.8638 -15.9984 1.30819 -2.25925 -47.8066 -11.0723 -9.71728 -32.8026 75.4675 19.1012 5.82328 9.61819 -0.917488 3.94109 -30.4225 -6.30402 -4.4957 -16.6158 -4.31889 -1.37243 25.6198 5.91266 11.1824 17.6472 -2.46768 0.0462048 0.00053089 0.662642 
134.158 8.79061 -2.49863 -86.8591 -0.915403 -95.705 -3.92092 -7.62248 -7.71206 3.9594 5.98259 0.347654 -22.644 33.0818 7.94778 -1.11495e-009 8.7508e-006 -1.48278e-008 12.6705 -15.4922 5.10595 -16.5241 22.235 9.85932 19.6881 1.30791 0.667809 58.6966 -15.6525 5.05576 18.1992 66.1729 -8.37346 4.00904 9.95189 -3.94746 -15.9799 1.30765 -2.25718 -47.8632 -11.1164 -9.69946 -32.7998 75.4869 19.106 5.82328 9.61819 -0.917488 3.92641 -30.4908 -6.28136 -4.5032 -16.5991 -4.35208 -1.35876 25.6114 5.91926 11.1651 17.6565 -2.46592 0.0462048 0.00053089 0.662642 
134.162 8.79151 -2.50495 -86.8548 -0.893343 -95.6804 -3.88876 -7.64785 -7.69076 3.93382 6.0199 0.265581 -22.5519 33.0473 7.90695 -1.11495e-009 8.7508e-006 -1.48278e-008 12.7578 -15.5292 5.11994 -16.6653 22.3425 9.92298 19.6456 1.30754 0.66831 58.8507 -15.7879 5.10866 18.1786 66.2905 -8.38409 3.98063 9.95229 -3.96196 -15.9588 1.30715 -2.25132 -47.8255 -11.076 -9.80638 -32.735 75.4303 19.0354 5.82328 9.61819 -0.917488 3.95993 -30.6824 -6.3264 -4.48363 -16.5812 -4.37038 -1.35092 25.5761 5.90878 11.1425 17.6729 -2.46508 0.0462048 0.00053089 0.662642 
134.169 8.7921 -2.51368 -86.8222 -0.881175 -95.6535 -3.85557 -7.69185 -7.65782 3.8976 6.03811 0.184914 -22.4925 33.0231 7.88027 -1.11495e-009 8.7508e-006 -1.48278e-008 12.8824 -15.6459 5.14718 -16.8676 22.4907 10.0138 19.5866 1.30713 0.668982 59.0488 -15.9387 5.1734 18.204 66.3919 -8.46316 3.85647 9.95349 -3.90157 -15.9294 1.30661 -2.24214 -47.7581 -10.9954 -9.92798 -32.7213 75.3316 19.0168 5.82328 9.61819 -0.917488 4.01265 -30.8562 -6.37225 -4.4638 -16.5878 -4.37429 -1.34942 25.537 5.88113 11.1376 17.681 -2.46536 0.0462048 0.00053089 0.662642 
134.173 8.79224 -2.52156 -86.795 -0.889407 -95.6378 -3.84035 -7.71751 -7.62829 3.85955 6.02646 0.150304 -22.47 33.0255 7.87249 -1.11495e-009 8.7508e-006 -1.48278e-008 12.9059 -15.7682 5.1496 -16.9208 22.5911 10.0338 19.5736 1.30681 0.669624 59.0888 -15.9213 5.22945 18.2682 66.3512 -8.56061 3.86929 9.95369 -3.91815 -15.8928 1.30613 -2.23479 -47.7598 -10.9608 -9.95732 -32.7673 75.2761 19.0679 5.82328 9.61819 -0.917488 4.03777 -30.9014 -6.35191 -4.46756 -16.6039 -4.3775 -1.34989 25.5244 5.86204 11.1528 17.6734 -2.46723 0.0462048 0.00053089 0.662642 
134.174 8.79083 -2.52817 -86.7877 -0.899505 -95.6287 -3.83297 -7.72299 -7.60754 3.82853 6.01292 0.126461 -22.4248 33.0332 7.85738 -1.11495e-009 8.7508e-006 -1.48278e-008 12.8402 -15.8515 5.13063 -16.8389 22.6597 9.99679 19.5903 1.30668 0.670036 59.0174 -15.8077 5.27879 18.2852 66.2007 -8.57241 4.03475 9.95276 -4.0197 -15.8623 1.30574 -2.23088 -47.8282 -11.0002 -9.92631 -32.7553 75.287 19.0644 5.82328 9.61819 -0.917488 4.03104 -30.9206 -6.32408 -4.47646 -16.6058 -4.37914 -1.34954 25.5218 5.85675 11.1823 17.6598 -2.47268 0.0462048 0.00053089 0.662642 
134.177 8.7885 -2.53346 -86.7806 -0.896622 -95.6196 -3.8156 -7.73608 -7.5842 3.79948 6.02016 0.0713533 -22.3592 33.0153 7.8297 -1.11495e-009 8.7508e-006 -1.48278e-008 12.764 -15.9164 5.11554 -16.7349 22.7321 9.95882 19.6102 1.30666 0.670231 58.9432 -15.7303 5.32039 18.2562 66.0826 -8.51938 4.13076 9.95261 -4.0422 -15.8505 1.30544 -2.22936 -47.9054 -11.1109 -9.89847 -32.7065 75.3619 19.0278 5.82328 9.61819 -0.917488 4.03829 -30.978 -6.3581 -4.47163 -16.5951 -4.37947 -1.34844 25.4967 5.85612 11.2166 17.6555 -2.4799 0.0462048 0.00053089 0.662642 
